<svg preserveAspectRatio="none" overflow="visible" style="display: block;" width="54" height="54" viewBox="0 0 54 54" fill="none" xmlns="http://www.w3.org/2000/svg">
<g id="Loading Logo">
<path id="Vector" d="M34 3H20C10.6112 3 3 10.6112 3 20V34C3 43.3888 10.6112 51 20 51H34C43.3888 51 51 43.3888 51 34V20C51 10.6112 43.3888 3 34 3Z" fill="#2563EB"/>
<path id="Vector_2" d="M31 31C35.4183 31 39 27.4183 39 23C39 18.5817 35.4183 15 31 15C26.5817 15 23 18.5817 23 23C23 27.4183 26.5817 31 31 31Z" fill="white"/>
<path id="Vector_3" d="M12 21H23L17.5 31L12 21Z" fill="white"/>
</g>
</svg>
