<svg xmlns="http://www.w3.org/2000/svg" width="960" height="467" viewBox="0 0 960 467" role="img" aria-labelledby="title desc">
  <title id="title">마주 보는 두 인물의 촬영 장면 실루엣</title>
  <desc id="desc">붉은 옷을 입은 여성과 검은 옷을 입은 남성의 주요 외곽선</desc>
  <defs>
    <filter id="soft-shadow" x="-20%" y="-20%" width="140%" height="140%">
      <feDropShadow dx="0" dy="1" stdDeviation="1.2" flood-color="#07101d" flood-opacity=".68"/>
    </filter>
  </defs>
  <g fill="none" stroke-linecap="round" stroke-linejoin="round" filter="url(#soft-shadow)">
    <g stroke="#fff" stroke-opacity=".9" stroke-width="8">
      <path d="M423 149 C438 149 448 158 449 171 C450 183 445 194 437 200 L441 208 C453 215 458 228 459 244 L459 305 C459 329 464 353 468 377 L476 467 L377 467 L386 382 C389 356 391 335 390 316 L388 259 C386 239 390 221 402 211 L410 203 C399 194 393 183 394 170 C396 157 407 149 423 149 Z"/>
      <path d="M406 157 C399 169 398 183 403 197 C408 210 415 221 421 229 C411 226 401 220 396 211 C389 198 387 180 392 167 C397 153 409 147 424 149"/>
      <path d="M442 215 C448 236 449 259 447 283 L444 319 C443 328 447 337 453 341"/>
      <path d="M432 319 C431 332 427 343 423 352 L419 378 C418 389 423 397 432 398 C441 398 447 390 446 380 L443 354"/>
      <path d="M419 372 C427 367 437 368 445 374 L449 408 C441 414 428 414 418 408 Z"/>
      <path d="M391 315 C408 322 430 324 447 317"/>
      <path d="M581 157 C597 157 610 167 611 182 C612 195 606 205 596 211 L596 218 C614 220 630 230 635 247 L641 302 C644 324 644 344 641 366 L637 467 L604 467 L596 387 L585 467 L555 467 L556 388 C550 375 547 357 548 338 L543 292 C540 270 541 249 551 233 C557 224 566 219 574 217 L574 210 C565 204 560 194 560 182 C560 168 568 158 581 157 Z"/>
      <path d="M551 235 C548 258 548 280 552 302 L558 330 C560 339 566 345 574 344 C581 343 585 337 584 330"/>
      <path d="M634 247 C638 270 638 292 634 311 L626 332 C623 341 615 347 607 344 C600 341 598 334 601 326"/>
      <path d="M570 326 C578 331 587 333 595 328 C600 324 606 324 612 329"/>
      <path d="M557 385 C579 392 615 391 639 382"/>
      <path d="M565 221 C578 230 595 230 607 220"/>
    </g>
    <g stroke="#69afea" stroke-width="3">
      <path d="M423 149 C438 149 448 158 449 171 C450 183 445 194 437 200 L441 208 C453 215 458 228 459 244 L459 305 C459 329 464 353 468 377 L476 467 L377 467 L386 382 C389 356 391 335 390 316 L388 259 C386 239 390 221 402 211 L410 203 C399 194 393 183 394 170 C396 157 407 149 423 149 Z"/>
      <path d="M406 157 C399 169 398 183 403 197 C408 210 415 221 421 229 C411 226 401 220 396 211 C389 198 387 180 392 167 C397 153 409 147 424 149"/>
      <path d="M442 215 C448 236 449 259 447 283 L444 319 C443 328 447 337 453 341"/>
      <path d="M432 319 C431 332 427 343 423 352 L419 378 C418 389 423 397 432 398 C441 398 447 390 446 380 L443 354"/>
      <path d="M419 372 C427 367 437 368 445 374 L449 408 C441 414 428 414 418 408 Z"/>
      <path d="M391 315 C408 322 430 324 447 317"/>
      <path d="M581 157 C597 157 610 167 611 182 C612 195 606 205 596 211 L596 218 C614 220 630 230 635 247 L641 302 C644 324 644 344 641 366 L637 467 L604 467 L596 387 L585 467 L555 467 L556 388 C550 375 547 357 548 338 L543 292 C540 270 541 249 551 233 C557 224 566 219 574 217 L574 210 C565 204 560 194 560 182 C560 168 568 158 581 157 Z"/>
      <path d="M551 235 C548 258 548 280 552 302 L558 330 C560 339 566 345 574 344 C581 343 585 337 584 330"/>
      <path d="M634 247 C638 270 638 292 634 311 L626 332 C623 341 615 347 607 344 C600 341 598 334 601 326"/>
      <path d="M570 326 C578 331 587 333 595 328 C600 324 606 324 612 329"/>
      <path d="M557 385 C579 392 615 391 639 382"/>
      <path d="M565 221 C578 230 595 230 607 220"/>
    </g>
  </g>
</svg>
